<svg version="1.1" id="Layer_1" xmlns="http://www.w3.org/2000/svg" xmlns:xlink="http://www.w3.org/1999/xlink" x="0px" y="0px"
	 width="100%" viewBox="0 0 1472 572" enable-background="new 0 0 1472 572" xml:space="preserve">
<path fill="#FFFFFF" opacity="1.000000" stroke="none" 
	d="
M1375.000000,573.000000 
	C916.722534,573.000000 458.945099,573.000000 1.083832,573.000000 
	C1.083832,382.412537 1.083832,191.825012 1.083832,1.118744 
	C491.666656,1.118744 982.333313,1.118744 1472.993530,1.118744 
	C1472.993530,191.721848 1472.993530,382.360931 1472.990234,573.000000 
	C1440.491333,573.000000 1407.995728,573.000000 1375.000000,573.000000 
M998.124023,329.824371 
	C999.599915,329.578217 1001.073120,329.313873 1002.552185,329.088531 
	C1029.929077,324.917175 1050.574341,300.632416 1050.669556,272.483002 
	C1050.762939,244.870880 1030.713867,219.787140 1003.655151,216.214279 
	C988.263245,214.181931 972.455078,215.052094 956.836426,215.116745 
	C951.033264,215.140747 947.024170,220.452728 947.010925,226.916382 
	C946.948792,257.213684 946.942505,287.511292 947.012878,317.808563 
	C947.030212,325.265045 951.742737,329.927246 959.240784,329.969238 
	C971.891052,330.039978 984.542480,329.912994 998.124023,329.824371 
M730.639343,304.096283 
	C738.408264,286.139130 737.067566,268.948242 724.070984,254.166565 
	C708.057068,235.952957 688.204468,233.723618 666.694519,243.429276 
	C658.972656,235.202179 651.322937,233.959686 645.522827,240.268829 
	C638.990967,247.373917 640.882507,255.346512 647.538818,260.643951 
	C645.951538,269.327148 643.464233,277.218781 643.255615,285.170197 
	C642.679443,307.132294 643.032837,329.119415 643.066467,351.096558 
	C643.078735,359.106720 647.867249,364.636902 654.622375,364.629883 
	C661.515869,364.622711 666.039185,359.324585 666.073242,351.117554 
	C666.109619,342.339813 666.081421,333.561798 666.081421,324.117126 
	C678.018616,329.981018 689.906067,331.821014 702.297852,328.038605 
	C714.884827,324.196625 724.133423,316.338593 730.639343,304.096283 
M553.249146,364.569916 
	C560.943848,362.719818 563.885254,359.116699 563.935913,351.240906 
	C563.992493,342.432281 563.948914,333.623016 563.948914,324.120209 
	C574.883728,329.559265 585.825684,331.547058 597.301880,328.804962 
	C608.791138,326.059784 617.954651,319.807098 624.798157,310.177673 
	C635.627747,294.939514 635.728333,273.344208 625.070496,258.029968 
	C619.377380,249.849625 611.877197,244.025711 602.505676,240.614304 
	C589.387268,235.838898 576.711060,237.568161 564.616882,243.524734 
	C556.612793,235.217865 549.158264,234.168686 543.182312,240.219955 
	C537.204956,246.272659 538.349792,253.409180 546.690186,261.732330 
	C542.544434,269.152069 540.860718,277.170593 540.895447,285.677582 
	C540.984436,307.509247 540.904724,329.341583 540.934814,351.173584 
	C540.946350,359.539337 544.111694,363.165100 553.249146,364.569916 
M415.241394,329.947174 
	C423.029144,327.964600 425.750366,324.422394 425.758026,315.960968 
	C425.784271,286.967712 425.775299,257.974426 425.750305,228.981171 
	C425.748871,227.327621 425.664764,225.634506 425.310181,224.028000 
	C424.001404,218.098312 419.311920,214.590027 413.364960,214.938187 
	C407.813477,215.263199 403.441040,219.329834 402.873535,225.115814 
	C402.516998,228.750671 402.616180,232.435043 402.600983,236.097580 
	C402.567322,244.203125 402.590515,252.308914 402.590515,260.504150 
	C382.963837,260.504150 364.091980,260.504150 345.003937,260.504150 
	C345.003937,248.953842 345.109222,237.794373 344.967255,226.638046 
	C344.871124,219.082672 339.091125,214.091049 331.879761,214.985611 
	C325.876617,215.730286 322.021393,220.685959 322.010315,227.924942 
	C321.975098,250.919556 321.994720,273.914246 321.998474,296.908905 
	C321.999695,304.240387 321.837372,311.577942 322.083344,318.901520 
	C322.290375,325.065430 327.001129,329.634735 332.895599,329.964081 
	C338.514801,330.278107 343.784576,326.233063 344.800476,320.630310 
	C345.123627,318.848206 345.001007,316.977020 345.003845,315.146484 
	C345.019653,304.878021 345.011414,294.609558 345.011414,284.411072 
	C364.488129,284.411072 383.355865,284.411072 402.597565,284.411072 
	C402.597565,295.638214 402.451874,306.462982 402.645782,317.281616 
	C402.789093,325.276001 406.544678,329.093872 415.241394,329.947174 
M741.108154,280.781219 
	C740.624268,302.989990 752.205261,321.105042 772.418823,327.244324 
	C780.490479,329.695862 789.450134,329.510315 798.033936,329.898865 
	C804.991882,330.213806 810.009399,325.083557 810.088196,318.631165 
	C810.169189,311.995239 805.076416,307.145660 797.801697,307.005829 
	C793.970520,306.932159 790.125916,307.152191 786.307495,306.914917 
	C778.497864,306.429688 772.247131,303.236450 767.588867,295.712250 
	C770.577454,295.712250 772.568787,295.718933 774.560120,295.711182 
	C789.723083,295.652252 804.887451,295.695953 820.048401,295.489746 
	C829.032288,295.367523 833.231567,290.867004 833.079529,282.124298 
	C832.604797,254.832336 806.079895,233.504227 779.274231,238.477859 
	C761.814575,241.717422 743.893372,255.688690 741.108154,280.781219 
M525.597168,298.060394 
	C527.910767,290.624664 528.549072,283.141144 527.100708,275.391907 
	C522.563354,251.115891 498.577393,234.093369 474.702087,238.394089 
	C449.146790,242.997437 431.995636,266.582581 436.321259,291.172943 
	C440.841980,316.872437 464.488831,333.815674 489.629028,329.112091 
	C494.752899,328.153442 499.685699,326.173492 504.777863,324.642914 
	C510.973572,332.141144 518.778381,333.594391 524.894043,328.269684 
	C531.452759,322.559082 530.495544,314.518585 522.315186,306.217590 
	C523.310486,303.720398 524.294434,301.251526 525.597168,298.060394 
M1122.201904,242.254105 
	C1120.657593,241.638962 1119.147583,240.912262 1117.563721,240.425720 
	C1098.993774,234.720901 1082.352783,238.278580 1069.076050,252.466736 
	C1055.364136,267.120026 1052.426636,284.609894 1060.715698,302.901917 
	C1068.821289,320.789276 1083.597900,329.807770 1103.225586,329.915131 
	C1124.130859,330.029480 1142.197632,315.185944 1147.232910,294.493866 
	C1152.280396,273.752838 1142.492554,252.945694 1122.201904,242.254105 
M866.313354,297.500610 
	C866.315491,293.335815 866.241333,289.169342 866.333618,285.006531 
	C866.645020,270.963745 876.549866,260.787476 889.682373,260.947357 
	C902.674805,261.105499 912.149658,271.167908 912.278320,285.111633 
	C912.375122,295.606140 912.237976,306.102722 912.323486,316.597443 
	C912.390686,324.842804 916.964783,329.995026 923.970215,329.975739 
	C930.774292,329.957001 935.390320,324.941132 935.488342,317.003143 
	C935.624023,306.009766 935.824829,295.002533 935.444580,284.020355 
	C934.470581,255.884918 912.991333,236.099792 885.411255,238.217377 
	C879.083984,238.703186 872.912292,241.215469 866.374084,242.869781 
	C859.097168,235.275314 851.491394,233.944702 845.778870,240.152527 
	C838.868103,247.662720 841.197876,255.478378 848.306213,261.073242 
	C846.684753,267.297913 844.153931,273.154266 843.805603,279.137665 
	C843.032227,292.419983 843.116333,305.769836 843.330872,319.084412 
	C843.433044,325.418671 848.809631,329.995422 854.824646,329.983459 
	C860.918823,329.971344 865.830261,325.456787 866.134827,318.984406 
	C866.455383,312.168671 866.274475,305.329315 866.313354,297.500610 
z"/>
<path fill="#FC3001" opacity="1.000000" stroke="none" 
	d="
M997.658691,329.846771 
	C984.542480,329.912994 971.891052,330.039978 959.240784,329.969238 
	C951.742737,329.927246 947.030212,325.265045 947.012878,317.808563 
	C946.942505,287.511292 946.948792,257.213684 947.010925,226.916382 
	C947.024170,220.452728 951.033264,215.140747 956.836426,215.116745 
	C972.455078,215.052094 988.263245,214.181931 1003.655151,216.214279 
	C1030.713867,219.787140 1050.762939,244.870880 1050.669556,272.483002 
	C1050.574341,300.632416 1029.929077,324.917175 1002.552185,329.088531 
	C1001.073120,329.313873 999.599915,329.578217 997.658691,329.846771 
M1005.074890,304.825317 
	C1006.580811,304.121948 1008.133179,303.502777 1009.585388,302.701996 
	C1022.027039,295.841492 1028.935913,282.459442 1027.287720,268.493073 
	C1025.655151,254.659515 1015.982300,242.004410 1002.786011,239.520905 
	C992.193909,237.527496 981.135010,238.014587 970.316284,237.402817 
	C970.316284,261.334167 970.316284,284.043518 970.316284,307.902679 
	C981.912537,306.919708 993.108521,305.970642 1005.074890,304.825317 
z"/>
<path fill="#F39D14" opacity="1.000000" stroke="none" 
	d="
M730.452271,304.419495 
	C724.133423,316.338593 714.884827,324.196625 702.297852,328.038605 
	C689.906067,331.821014 678.018616,329.981018 666.081421,324.117126 
	C666.081421,333.561798 666.109619,342.339813 666.073242,351.117554 
	C666.039185,359.324585 661.515869,364.622711 654.622375,364.629883 
	C647.867249,364.636902 643.078735,359.106720 643.066467,351.096558 
	C643.032837,329.119415 642.679443,307.132294 643.255615,285.170197 
	C643.464233,277.218781 645.951538,269.327148 647.538818,260.643951 
	C640.882507,255.346512 638.990967,247.373917 645.522827,240.268829 
	C651.322937,233.959686 658.972656,235.202179 666.694519,243.429276 
	C688.204468,233.723618 708.057068,235.952957 724.070984,254.166565 
	C737.067566,268.948242 738.408264,286.139130 730.452271,304.419495 
M707.970581,270.650665 
	C699.516357,260.242035 686.930298,257.895599 676.493347,264.782288 
	C666.791748,271.183777 663.439758,283.939667 668.731995,294.317871 
	C674.598572,305.822418 688.433228,310.238129 699.868103,304.255859 
	C711.921509,297.949982 715.506653,284.081879 707.970581,270.650665 
z"/>
<path fill="#F39D14" opacity="1.000000" stroke="none" 
	d="
M552.867920,364.605469 
	C544.111694,363.165100 540.946350,359.539337 540.934814,351.173584 
	C540.904724,329.341583 540.984436,307.509247 540.895447,285.677582 
	C540.860718,277.170593 542.544434,269.152069 546.690186,261.732330 
	C538.349792,253.409180 537.204956,246.272659 543.182312,240.219955 
	C549.158264,234.168686 556.612793,235.217865 564.616882,243.524734 
	C576.711060,237.568161 589.387268,235.838898 602.505676,240.614304 
	C611.877197,244.025711 619.377380,249.849625 625.070496,258.029968 
	C635.728333,273.344208 635.627747,294.939514 624.798157,310.177673 
	C617.954651,319.807098 608.791138,326.059784 597.301880,328.804962 
	C585.825684,331.547058 574.883728,329.559265 563.948914,324.120209 
	C563.948914,333.623016 563.992493,342.432281 563.935913,351.240906 
	C563.885254,359.116699 560.943848,362.719818 552.867920,364.605469 
M569.047546,269.620667 
	C563.400208,277.034668 562.254944,285.091400 566.165833,293.554260 
	C569.891907,301.617371 576.485840,306.112518 585.286499,306.867889 
	C596.217102,307.806091 605.839111,300.875946 609.051392,290.187927 
	C612.050598,280.208893 607.661865,269.392426 598.442749,264.041840 
	C588.757629,258.420776 577.819458,260.309326 569.047546,269.620667 
z"/>
<path fill="#F39D14" opacity="1.000000" stroke="none" 
	d="
M414.834351,329.966797 
	C406.544678,329.093872 402.789093,325.276001 402.645782,317.281616 
	C402.451874,306.462982 402.597565,295.638214 402.597565,284.411072 
	C383.355865,284.411072 364.488129,284.411072 345.011414,284.411072 
	C345.011414,294.609558 345.019653,304.878021 345.003845,315.146484 
	C345.001007,316.977020 345.123627,318.848206 344.800476,320.630310 
	C343.784576,326.233063 338.514801,330.278107 332.895599,329.964081 
	C327.001129,329.634735 322.290375,325.065430 322.083344,318.901520 
	C321.837372,311.577942 321.999695,304.240387 321.998474,296.908905 
	C321.994720,273.914246 321.975098,250.919556 322.010315,227.924942 
	C322.021393,220.685959 325.876617,215.730286 331.879761,214.985611 
	C339.091125,214.091049 344.871124,219.082672 344.967255,226.638046 
	C345.109222,237.794373 345.003937,248.953842 345.003937,260.504150 
	C364.091980,260.504150 382.963837,260.504150 402.590515,260.504150 
	C402.590515,252.308914 402.567322,244.203125 402.600983,236.097580 
	C402.616180,232.435043 402.516998,228.750671 402.873535,225.115814 
	C403.441040,219.329834 407.813477,215.263199 413.364960,214.938187 
	C419.311920,214.590027 424.001404,218.098312 425.310181,224.028000 
	C425.664764,225.634506 425.748871,227.327621 425.750305,228.981171 
	C425.775299,257.974426 425.784271,286.967712 425.758026,315.960968 
	C425.750366,324.422394 423.029144,327.964600 414.834351,329.966797 
z"/>
<path fill="#F39D15" opacity="1.000000" stroke="none" 
	d="
M741.127014,280.326630 
	C743.893372,255.688690 761.814575,241.717422 779.274231,238.477859 
	C806.079895,233.504227 832.604797,254.832336 833.079529,282.124298 
	C833.231567,290.867004 829.032288,295.367523 820.048401,295.489746 
	C804.887451,295.695953 789.723083,295.652252 774.560120,295.711182 
	C772.568787,295.718933 770.577454,295.712250 767.588867,295.712250 
	C772.247131,303.236450 778.497864,306.429688 786.307495,306.914917 
	C790.125916,307.152191 793.970520,306.932159 797.801697,307.005829 
	C805.076416,307.145660 810.169189,311.995239 810.088196,318.631165 
	C810.009399,325.083557 804.991882,330.213806 798.033936,329.898865 
	C789.450134,329.510315 780.490479,329.695862 772.418823,327.244324 
	C752.205261,321.105042 740.624268,302.989990 741.127014,280.326630 
M769.454529,269.186768 
	C769.018494,269.995453 768.582458,270.804138 768.112549,271.675537 
	C780.954224,271.675537 793.420593,271.675537 806.142273,271.675537 
	C798.303589,258.650665 781.401184,257.421600 769.454529,269.186768 
z"/>
<path fill="#F39D14" opacity="1.000000" stroke="none" 
	d="
M525.437805,298.421509 
	C524.294434,301.251526 523.310486,303.720398 522.315186,306.217590 
	C530.495544,314.518585 531.452759,322.559082 524.894043,328.269684 
	C518.778381,333.594391 510.973572,332.141144 504.777863,324.642914 
	C499.685699,326.173492 494.752899,328.153442 489.629028,329.112091 
	C464.488831,333.815674 440.841980,316.872437 436.321259,291.172943 
	C431.995636,266.582581 449.146790,242.997437 474.702087,238.394089 
	C498.577393,234.093369 522.563354,251.115891 527.100708,275.391907 
	C528.549072,283.141144 527.910767,290.624664 525.437805,298.421509 
M504.841187,286.117279 
	C504.860199,284.953217 504.969299,283.782562 504.884247,282.626160 
	C504.065216,271.488647 495.729492,262.586609 484.740356,261.071808 
	C474.515259,259.662354 464.216705,265.775208 460.420563,275.507294 
	C456.537659,285.461761 460.023315,296.945007 468.858490,302.879517 
	C483.900055,312.982819 502.460632,303.168121 504.841187,286.117279 
z"/>
<path fill="#FC3103" opacity="1.000000" stroke="none" 
	d="
M1122.522583,242.449860 
	C1142.492554,252.945694 1152.280396,273.752838 1147.232910,294.493866 
	C1142.197632,315.185944 1124.130859,330.029480 1103.225586,329.915131 
	C1083.597900,329.807770 1068.821289,320.789276 1060.715698,302.901917 
	C1052.426636,284.609894 1055.364136,267.120026 1069.076050,252.466736 
	C1082.352783,238.278580 1098.993774,234.720901 1117.563721,240.425720 
	C1119.147583,240.912262 1120.657593,241.638962 1122.522583,242.449860 
M1080.549072,290.686188 
	C1084.504028,301.433868 1093.714600,307.764587 1104.177734,306.927002 
	C1114.621704,306.091003 1123.323486,298.164093 1125.089233,287.877655 
	C1126.879517,277.447906 1121.523926,267.184937 1111.851562,262.944427 
	C1103.709839,259.374969 1095.770020,260.199768 1088.741699,265.541687 
	C1080.665649,271.680023 1078.095215,280.077057 1080.549072,290.686188 
z"/>
<path fill="#F39D15" opacity="1.000000" stroke="none" 
	d="
M866.313049,298.000458 
	C866.274475,305.329315 866.455383,312.168671 866.134827,318.984406 
	C865.830261,325.456787 860.918823,329.971344 854.824646,329.983459 
	C848.809631,329.995422 843.433044,325.418671 843.330872,319.084412 
	C843.116333,305.769836 843.032227,292.419983 843.805603,279.137665 
	C844.153931,273.154266 846.684753,267.297913 848.306213,261.073242 
	C841.197876,255.478378 838.868103,247.662720 845.778870,240.152527 
	C851.491394,233.944702 859.097168,235.275314 866.374084,242.869781 
	C872.912292,241.215469 879.083984,238.703186 885.411255,238.217377 
	C912.991333,236.099792 934.470581,255.884918 935.444580,284.020355 
	C935.824829,295.002533 935.624023,306.009766 935.488342,317.003143 
	C935.390320,324.941132 930.774292,329.957001 923.970215,329.975739 
	C916.964783,329.995026 912.390686,324.842804 912.323486,316.597443 
	C912.237976,306.102722 912.375122,295.606140 912.278320,285.111633 
	C912.149658,271.167908 902.674805,261.105499 889.682373,260.947357 
	C876.549866,260.787476 866.645020,270.963745 866.333618,285.006531 
	C866.241333,289.169342 866.315491,293.335815 866.313049,298.000458 
z"/>
<path fill="#FFFEFE" opacity="1.000000" stroke="none" 
	d="
M1004.689697,304.923462 
	C993.108521,305.970642 981.912537,306.919708 970.316284,307.902679 
	C970.316284,284.043518 970.316284,261.334167 970.316284,237.402817 
	C981.135010,238.014587 992.193909,237.527496 1002.786011,239.520905 
	C1015.982300,242.004410 1025.655151,254.659515 1027.287720,268.493073 
	C1028.935913,282.459442 1022.027039,295.841492 1009.585388,302.701996 
	C1008.133179,303.502777 1006.580811,304.121948 1004.689697,304.923462 
z"/>
<path fill="#FFFEFC" opacity="1.000000" stroke="none" 
	d="
M708.185852,270.949341 
	C715.506653,284.081879 711.921509,297.949982 699.868103,304.255859 
	C688.433228,310.238129 674.598572,305.822418 668.731995,294.317871 
	C663.439758,283.939667 666.791748,271.183777 676.493347,264.782288 
	C686.930298,257.895599 699.516357,260.242035 708.185852,270.949341 
z"/>
<path fill="#FFFEFC" opacity="1.000000" stroke="none" 
	d="
M569.265076,269.331329 
	C577.819458,260.309326 588.757629,258.420776 598.442749,264.041840 
	C607.661865,269.392426 612.050598,280.208893 609.051392,290.187927 
	C605.839111,300.875946 596.217102,307.806091 585.286499,306.867889 
	C576.485840,306.112518 569.891907,301.617371 566.165833,293.554260 
	C562.254944,285.091400 563.400208,277.034668 569.265076,269.331329 
z"/>
<path fill="#FFFEFC" opacity="1.000000" stroke="none" 
	d="
M769.705688,268.902039 
	C781.401184,257.421600 798.303589,258.650665 806.142273,271.675537 
	C793.420593,271.675537 780.954224,271.675537 768.112549,271.675537 
	C768.582458,270.804138 769.018494,269.995453 769.705688,268.902039 
z"/>
<path fill="#FFFEFC" opacity="1.000000" stroke="none" 
	d="
M504.786530,286.536041 
	C502.460632,303.168121 483.900055,312.982819 468.858490,302.879517 
	C460.023315,296.945007 456.537659,285.461761 460.420563,275.507294 
	C464.216705,265.775208 474.515259,259.662354 484.740356,261.071808 
	C495.729492,262.586609 504.065216,271.488647 504.884247,282.626160 
	C504.969299,283.782562 504.860199,284.953217 504.786530,286.536041 
z"/>
<path fill="#FFFDFD" opacity="1.000000" stroke="none" 
	d="
M1080.398926,290.317291 
	C1078.095215,280.077057 1080.665649,271.680023 1088.741699,265.541687 
	C1095.770020,260.199768 1103.709839,259.374969 1111.851562,262.944427 
	C1121.523926,267.184937 1126.879517,277.447906 1125.089233,287.877655 
	C1123.323486,298.164093 1114.621704,306.091003 1104.177734,306.927002 
	C1093.714600,307.764587 1084.504028,301.433868 1080.398926,290.317291 
z"/>
</svg>